<?xml version="1.0" encoding="utf-8"?>
<!-- Generator: Adobe Illustrator 26.3.1, SVG Export Plug-In . SVG Version: 6.00 Build 0)  -->
<svg version="1.1" id="Capa_1" xmlns="http://www.w3.org/2000/svg" xmlns:xlink="http://www.w3.org/1999/xlink" x="0px" y="0px"
	 viewBox="0 0 1405 601" style="enable-background:new 0 0 1405 601;" xml:space="preserve">
<style type="text/css">
	.st0{fill:#F5D222;}
	.st1{fill:#F5D323;}
	.st2{fill:#F2D12A;}
	.st3{fill:#F9FBFB;}
	.st4{fill:#788797;}
	.st5{fill:#C2CCD6;}
	.st6{fill:#7B8998;}
	.st7{fill:#979692;}
	.st8{fill:#687689;}
	.st9{fill:#F0D436;}
	.st10{fill:#EDD74B;}
	.st11{fill:#F4F5EA;}
	.st12{fill:#F3ECCB;}
	.st13{fill:#5E6F85;}
</style>
<g id="lemax">
	<g>
		<path class="st0" d="M1120.1,469.4c-7.4,2.1-10.4-2.5-11.5-8.9c-1.7-10.1-2.6-20.4-3.9-30.7c-1.7-13.1-1.7-13.1-13.5-13.1
			c-13.5,0-27.2,0.2-40.7-0.2c-5.9-0.2-8.3,2.1-8.9,8c-1.1,9.4-3,18.6-4.4,27.9c-2.4,19.5-3,15.1-18.3,15.8
			c-10.4,0.5-21.1-1.8-31.3,1.4c-1.1,0-2.2,0-3.3,0c-9.8,0-11.5-2.1-9.4-12.4c10.1-50.2,21.3-99.7,30.9-150
			c9.7-49.8,21.5-99.3,30.9-149.1c1.3-7.3,4.1-11,11.5-11c15.4,0.2,30.9,0.5,46.5,0c9.6-0.5,14.8,3,15.4,13.3
			c20,98.7,40.2,197.4,60.5,296.4c2.2,10.8,2,11-8.5,11.2C1148.1,468.7,1134,466.9,1120.1,469.4z M1065.9,367.1c7,0,14.1,0,21.1,0.5
			c6.1,0.5,7.4-1.8,6.3-8c-4.8-26.6-9.1-53.1-13.5-79.7c-2.2-13.3-3.5-26.6-7.6-39.4c-1.5,2.5-2.4,4.8-2.8,7.3
			c-5.7,35-11.1,70.3-16.5,105.4C1050.7,367.8,1051.1,367.8,1065.9,367.1z"/>
		<path class="st0" d="M1320.8,469.5c-7,2.3-8.3-3.4-9.8-8c-6.7-19.9-13.5-40.1-20.2-60c-2.4-8.7-4.8-17.2-8.7-25.7
			c-3,2.7-3.5,6-4.4,8.9c-7.4,21.5-14.1,43.1-22,64.4c-8.5,23.4-2,18.8-26.3,19.7c-8.9,0.2-17.8-2.1-26.5,1.6
			c-2.2,0-4.4-0.2-6.5-0.2c-8.5-0.5-9.6-2.7-6.3-11c18.9-47.3,35.9-95,55.5-142c2.2-5.3,2.8-9.8,0.9-15.1
			c-19.1-48.8-38.5-97.8-57.6-146.6c-1.5-3.9-0.9-6.6,3.9-6.9c17.4-1.1,34.8-0.7,52-0.2c7.8,0.2,6.1,8.9,9.8,13.1
			c8.7,26.8,17.4,53.6,26.5,82.2c3.9-6.6,5.7-11.2,4.8-16.7c2.4-1.8,3-4.6,3.9-7.3c7-21.1,14.1-41.9,20.4-63c2-6.2,5.2-8.5,10.4-8.5
			c15.4-0.2,30.9-0.2,46.3-0.2c10.4,0,5.2,7.8,5.7,12.8c-2.2,1.1-2.6,3.4-3.5,5.5c-17.4,44.7-34.6,89.3-52.2,134
			c-2.4,6.2-2.2,11,0.2,16.9c18.3,46.7,36.3,93.7,54.6,140.4c3.7,9.6,2.8,10.8-6.7,11C1350.2,469,1335.4,467.7,1320.8,469.5z"/>
		<path class="st0" d="M279.4,470c-12.6-0.2-12.8-0.5-12.8-13.4c0-98.2,0-197.4,0-296.1c0-11.9,0-11.9,11.3-11.9
			c45.1,0,90.1,0,135.2,0c12.6,0,12.8,0.2,13.5,13c0,9.4-0.2,18.8-0.2,28.1c0,14.4,0,14.4-13.3,14.4c-25.9,0-51.6,0.2-77.5,0
			c-5.7,0-7.6,1.6-7.4,7.8c0.2,18.8,0.2,37.8,0.2,56.5c0,13.7,0,13.7,13.1,12.6c11.5,0.2,23.1,0.2,34.6,0.2c11.1,0,11.1,0,11.8,11.4
			c-0.2,11.4-0.4,22.9-0.2,34.3c0.2,7.1-2.2,9.6-8.9,9.6c-14.1-0.2-28.3,0.2-42.4-0.2c-5.9-0.2-8.1,1.4-8.1,8
			c0.4,20.6,0.2,41.2,0,61.8c0,10.6,5.8,7,13.1,7.3c24.4,0,48.4,0.2,72.7,0.2c11.7,0,11.7,0,12.6,11.8c0,10.2-0.2,20.5-0.2,30.7
			c0,11.6-0.7,12.3-11.5,12.3c-42.2,0-84.1,0-126.1,0C285.7,468.7,282.2,467.3,279.4,470z"/>
		<path class="st1" d="M92.5,469.6c-9.9,0.9-11.2-0.5-11.2-10.7c0-99.5,0.2-199.1-0.2-298.6c0-8.2,3-9.5,9.3-9.5
			c13.8,0.2,27.4,0.5,41.2-0.2c8-0.5,11.7,2.5,11,11.1c0,81.8-0.2,163.6-0.2,245.7c0,5.2,1.7,7.3,6.5,6.6c26.4-0.6,53.2,0.2,79.6,0
			c11.4,0,11.7,0.2,12.7,11.8c-2.4,10.5-0.6,20.9-0.9,31.4c-0.4,11.1-0.4,11.6-11,11.6c-42.5,0-85.3,0-127.8,0
			C98.3,468.7,95.3,467.7,92.5,469.6z"/>
		<path class="st2" d="M912.1,170.8c-1.1-6.9-3.1-16.1-3.3-16.9c3.1-3.7,0.2-7.2-0.7-10.4c-1.3-4.9-2.6-9.7-0.2-14.1
			c2.6-5.1,2-9.7-0.7-14.4c-1.1-1.9-4.2-5.3,1.3-6.3c9.2,12.3,17.4,25.5,24.9,38.9c1.8,3.2,3.5,6.5,7.9,5.8c0.7,0.7,1.3,1.6,2,2.3
			c0.9,2.3,2,4.6,2.9,7c-0.9,6.5-7.5,12.8-0.2,19.2c2.5,8.9,4.5,16.5,5.9,22.4c4.6,18.8,6.3,29.3,6.8,32.5c0.5,3.2,0.9,5.8,1.1,7.7
			c0.4,2.9,0.7,5.9,1.1,8.8c0.3,2.5,0.2,4.3,0.2,5.1c0.2,12,2.1,30.7,1.2,49.2c-0.6,12.2-2.3,21.2-3.6,28.1
			c-1.7,9.1-8,39.3-32.4,83.5c-16.7,30.2-33.7,51.7-34.5,51.2c-0.8-0.5,16.5-23.9,29.5-57.9c0,0,8.4-22.4,13.8-48.1
			c0.3-1.4,0.8-3.8,1.2-6.7c0.5-3.3,2.3-16,0.6-36.2c-0.2-2.2-0.6-5.9-1.5-13.4c-1-8.8-2-16-2.7-20.9c-5.5,7.2-4.3,14.8-5.7,22
			c-5.5,36.3-16.7,70.3-30.8,103.4c-10.2,24.1-22.5,46.8-36.3,68.6c-1.1,1.5-2.3,3.1-3.7,4.4c-14.7,18.8-18.5,22.9-18.9,22.7
			c-0.8-0.6,11.7-15.9,20.2-39.1c3.9-10.6,5.8-19.8,6.8-26c-3.6,2.4-4.9,5.5-6.9,8.3c-16.7,23.3-20.9,26.3-29,35.1
			c-8.8,9.6-23,23.4-25,21.8c-1.3-1.1,3.3-8.7,5.1-11.8c38.1-63.9,80.6-156.7,88.4-179.4c2.1-6,5.4-16,8.8-28.9
			c1.5-5.8,2.5-10.6,3.2-13.9c2-10.2,2.8-18.5,4.2-32.8c0.1-1.2,0.3-3.3,0.5-5.9c0,0,0.4-5.5,0.6-11.3c0.9-25.2-1.4-45.3-1.4-45.3
			C912.8,174.8,912.3,171.8,912.1,170.8z"/>
		<path class="st2" d="M629.3,495.1c-4.1-7-7-10-10.9-17c-32.8-58.7-65.9-118-83.9-183.5c-2.2-8-3.4-16.8-3.4-16.8
			c-5.5-30.3-6.4-52.5-6.6-57.3c-0.2-5.6-0.3-13.5,0-23.1c0,0-0.7-4.6-1-6.9v-3.4c0.4,9.8,0.7,14.8,1,14.8c0.3,0,0.6-6.8,0.8-20.2
			c0-1.4,0.2-3,0.4-4.6c-0.2-1.4-0.3-3-0.3-4.8c0.1-3.8,0.8-6.9,1.5-9.3c0.6-3.4,1.3-6.9,2-10.4c1-5.1,2-10.2,3.1-15.1
			c0.2-0.7,0.4-1.4,0.9-1.8c0.2-1.1,0.7-2.9,0.7-2.9c0.1-0.2,0.3-1.2-0.2-2.2c-0.4-0.8-1.2-1.2-1.4-1.3c-0.4-1.4-0.7-2.5-1.1-3.9
			c-2.9-2.3-1.6-4.8-0.7-7.3c0.9-2.7,0.2-4.4-2.7-4.6c-8.2,10.5-15.1,22.2-22,33.9c-1.8,3.2-3.3,6.9-8,5.7c-0.4,0.5-0.9,1-1.3,1.7
			c-0.3,0.4-0.5,0.9-0.7,1.3c-2.5,3.9-3,6.6-3,8.2c0,0.4,0,2,0,3.7c0,2.5,0.1,2.6,0.1,3.9c0,1.2-0.2,3.5-0.3,3.9
			c-0.4,3.4-11,37.4-13.3,55.2c-0.6,4.7-1.7,16.2-1.9,22.2c0,0.4,0,1-0.1,1.9c-0.2,2.5-0.5,6.3-1.3,11c0,0,0,0,0,0
			c-0.1,8.5-0.4,17.1-0.4,25.7c0.4,1.8,0.2,5.5,0.2,7c0.2,6.2,1,10.7,1.4,13.7c1.6,11.4,1.2,11.6,2.3,19.3c0,0,1.7,11.4,5.1,24.3
			c4,15.2,14.7,41.3,33.3,71.7c1,2.5,2.6,6,5.2,9.7c2.9,4.1,7.4,9,8.2,8.4c0.6-0.4-0.5-4-8.6-18.2c-6.8-19.4-15.8-38-18.3-58.9
			c-4.6-17.9-4-36-1.5-54.1c0.1-1.1,0.1-2.3,0.2-3.5c0.3-3.7,0.6-7.2,1.1-10.7c0.3-4.8,0.6-9.6,0.9-14.4c0.1-1.4,0.2-2.8,0.2-4.2
			c-0.4-2.3-1.5-5.3,1.3-5.6c1.5,0,1.1,3.2,1.3,5.1c1.3,8.6,2.4,17.2,3.5,25.8c0.2,0.7,0.4,1.6,0.7,2.3c-0.1,1.8,0.2,3.6,0.7,5.3
			c0.2,3,0.2,6.3,0.9,9.3c8.6,38.8,21.4,75.7,39.2,110.7c1,1.7,1.9,3.4,2.9,5.1c2.9,8.4,6.8,15.8,12.1,22.5c1,1.6,1.9,3.2,2.9,4.8
			c3.9,7.1,8.4,14.5,13.5,22.3c6.2,9.3,12.4,17.5,18.4,24.8c-2-4.2-18.8-39.2-23.8-52.2c-1.3-3.3-3.4-9.4-1.1-11
			c3.7-2.4,6.2,3.2,8.4,6.3c11.3,15.1,23.9,28.9,37.1,41.9c0.8,0.8,2.8,1.9,5.4,4c6.1,5.1,8.6,8.9,9.1,8.5
			C638.4,511.7,634.4,503.7,629.3,495.1z"/>
		<path class="st2" d="M493.9,179.8"/>
		<path class="st2" d="M516.1,155.1"/>
		<path class="st2" d="M514.5,216.8c0.8,9.4,0.6,16.8,0.4,21.8c-0.1,2.7-0.4,5.4,0.1,5.5c0.9,0.2,3.6-9.4,5.7-17.7"/>
		<path class="st2" d="M516.6,260.3"/>
		<path class="st2" d="M520,259.4"/>
		<path class="st2" d="M530.4,310.6c-15.1-28.3-30.1-56.6-45.2-84.8"/>
		<path class="st2" d="M490.2,239.9"/>
		<path class="st2" d="M488.2,222.3"/>
		<path class="st2" d="M492.5,201.6"/>
		<path class="st2" d="M483.1,264.7"/>
		<path class="st2" d="M563.1,331.6"/>
		<path class="st3" d="M659.6,77.2c1.3-7.3,6.3-12.6,10-18.3c2.6-3.9,3.3-5-2-6.4c-4.6-1.4-12.2-0.2-12.4-7.1c-0.2-5.5,7-5,10.9-6.9
			c21.3-10.3,43.1-20.2,66.6-22.9c17.4-2.1,34.4,0.7,50.9,7.6c9.8,4.1,1.6,10.4-3.7,14.4c-2-2.5-3.3-0.2-4.6,0.7
			c-9.6,6-19.4,8.9-30.5,4.6c-4.6-1.8-9.4-2.1-15.7-3.2c2,2.5,2.8,3.7,3.7,4.6c-5,3.7-10.4,1.4-15.7,1.6c-3.5,0.2-5.9,0.9-5.4,5.3
			c-3.5-0.7-7-1.4-9.8-3.9c-1.3-0.9-2.6-0.9-3.5,0.5c-2.6,3.8,2.5,5.2,4.8,6.9c7,5.3,14.4,10.1,20.7,16.3c1.7,1.6,0.2,6.9,5,7.3
			c8.7,0.7,17.4,2.1,24.8-4.6c1.3-3.7,4.8-4.4,7.2-6.6c2.2-1.8,5-6.2,7.8-3.7c2.6,2.3-0.4,6.2-1.7,9.2c-0.9,2.1-2.4,3.9-3.5,5.7
			c-7.4,2.7-11.1,9.8-16.3,14.9c-17.2,17.2-27.4,36.9-21.5,63.2c3.5,15.3,0,30.2-5.9,46.3c-7-11-11.5-21.1-13.5-32.8
			c-0.4-2.3,1.1-6-2-6.9c-3.5-1.1-4.1,3-5.9,4.8c-5,5.5-10.2,11-15.4,16.5c-0.4-0.5-1.1-0.9-1.7-1.4c2.6-15.1,5.2-30,7.6-45.1
			c-10.7,12.8-19.6,26.3-32,36.6c-0.4-24.1,2.2-47.7,12.7-69.7c1.4-2.8,3.6-6.7-2.5-5.8c-9.8,1.1-9.1-3.7-5.5-10.7
			c0.7-1.6,0.9-3.1,1.8-4.8C667.1,78.3,664.5,76.9,659.6,77.2z"/>
		<path class="st4" d="M733.1,560c-13.1-0.7-26.3-0.5-38.5-7.1c-18.1-10.1-29.1-24.7-31.1-46.5c-0.2-1.1-0.4-2.3-0.7-3.4
			c0.4-13.7-2.6-28.2,3.9-41c5.4-11,10.4-22.7,22.4-27.9c3.5,0.2,7,0.2,10.7,0.5c42.6,0.9,90.3,29.2,84.2,78.1
			c-0.9,8.7-4.8,16.3-7,24.5c-1.3,0.9-1.7,2.1-1.3,3.7c-0.9,0-1.5-0.2-0.9,1.1c0.2-0.5,0.4-0.9,0.7-1.1c1.3-0.5,2-1.6,2.2-3
			c16.1-17.4,17.6-38.2,12.6-60.5c1.1,0,2.2,0.2,3,0.2c11.5,34.8-2.6,72.4-34.8,87.9c-30.5,14.9-60.9,14.2-87.2-9.6
			c-25.2-22.9-32.6-61.4-14.1-88.9c0.2-0.5,0.9-0.5,2.2-1.1c-1.7,6.4-3.5,12.1-5,17.9c-9.1,33.9,10,71.2,41.8,81.8
			c12.4,4.1,25,3.2,37.2-2.1c2.7-1.3,5.4-2.6,8-3.9C737.7,559.5,735.3,559.7,733.1,560z M718.5,540.7c18.9,2.3,36.1-16.3,35.2-33.2
			c-0.9-23.6-17.2-38.5-41.8-40.5c-17.8-1.4-32.6,15.6-32.6,35C679.2,524,696.1,540.7,718.5,540.7z"/>
		<path class="st5" d="M658.1,174.7c12.4-10.3,21.3-23.8,32-36.6c-2.6,15.1-5.2,30-7.6,45.1c0.4,0.5,1.1,0.9,1.7,1.4
			c5.2-5.5,10.2-11,15.4-16.5c1.7-1.8,2.4-6,5.9-4.8c2.8,0.9,1.5,4.4,2,6.9c2,11.7,6.5,22,13.5,32.8c5.7-16,9.4-30.9,5.9-46.3
			c-5.9-26.3,4.4-46,21.5-63.2c5.2-5.3,8.9-12.4,16.3-14.9c-4.6,16-12.8,30-21.3,43.7c-2.6,4.4-6.3,8.5-7.2,14.4
			c5.4,0.5,8-3.2,11.3-6.2c2-1.8,4.4-4.1,7.2-3.2c3.5,1.1,2,4.8,2,7.3c0.2,6-0.2,11.9,1.5,17.9c0.2,1.6-0.4,3.7,1.3,4.1
			c1.7,0.7,1.7-1.4,2-2.5c2.2-7.3,5-14.4,8.5-21.3c2.8-5.5,5.2-6,8.3-0.2c9.4,16.7,17.8,33.9,24.6,52c2.4,6.6-1.7,7.6-6.3,6.9
			c-7.8-1.4-15.2-4.1-22-8.2c-1.5-0.9-3.5-2.5-5.2-0.9c-2,1.8,0,3.7,0.4,5.5c2,8.5,4.4,16.9,6.5,25.7c0.4,1.6,2.4,3.9,0,5.5
			c-1.7,1.1-3.5,0.2-5.4-0.5c-11.7-5-20.4-14-28.3-23.8c-2.2-2.7-4.1-6-6.7-9.4c-3.9,5.7-4.8,12.4-6.7,18.3
			c-1.1,3.4-1.1,7.6-2.6,10.8c-2,4.1-1.5,11.5-7,11.2c-3.9-0.2-4.8-6.9-6.3-11c-2.8-7.1-5.7-14.2-7.8-21.5c-2-5.7-3.9-5-7-0.9
			c-7.8,10.3-16.5,19.5-28.1,25.7c-2.2,1.1-4.4,3-6.7,1.1c-2.2-1.6-0.9-4.1-0.2-6.4c2-7.1,3.9-14.2,5.4-21.3c0.4-2.3,0.7-6-0.7-7.3
			c-1.5-1.8-4.4,0.2-6.7,1.1c-5.7,2.5-11.5,4.6-17.8,6c-2.6,0.7-5.2,2.1-7.6-0.2c-2.8-2.7-0.7-5.3,0.2-7.8c4.6-13.7,8-27.7,13.7-41
			c-0.7-0.5-0.9-1.1-1.3-1.1c-9.8-0.7-9.8-0.7-5.2-10.1c2.6-5.5,5.9-11,8.7-16.5c2-3.7,3.9-7.3-2.4-8.9c-2-0.5-4.8-3-2.6-6
			c4.8-7.1,6.7-16.3,13.5-22c4.8-0.2,7.6,1.1,4.8,6.9c-0.9,1.6-1.1,3.2-1.7,4.8c-3.7,7.1-3.9,11.7,5.9,10.5c5.9-0.7,3.3,3.4,2.2,6
			C660.1,126,657.4,154.9,658.1,174.7z"/>
		<path class="st6" d="M872.5,197.2c0.2-2.3,0.4-4.6,0.9-6.9c0.2-1.8,0.4-3.5,0.7-5.3c2-9.6,1.1-19.5,0.7-29.1
			c-0.4-1.3-0.9-2.6-1.3-3.9c1.1-7.3,2.2-14.7,3.5-22.4c-3.3,0.2-3.9,2.3-5,3.9c-14.4,20.2-24.4,43.1-39.2,63
			c-7.6,10.3-12.6,24.5-27.8,26.3c8.5-14.2,17-28.2,25.2-42.4c18.5-31.6,31.1-66,40-101.9c0.9-3.2-1.1-6.9,1.7-9.6
			c3-1.6,4.4,1.4,5.9,3c4.8,5.5,9.6,11.5,14.4,17.2c4.4,8.9,8.9,17.6,13.1,26.6c2.8,6,4.4,11.9-2.2,16.7
			c-4.1-6.9-8.3-13.7-12.4-20.6c-0.9,0.2-1.7,0.2-2.4,0.5c11.1,57.5,13.3,114.5-4.4,170.9c-6.5,0.2-6.1,7.1-9.1,10.5
			c-2.4,2.5-4.4,6.6-7.6,3.9c-7.6-6.2-9.6-1.1-12,5c-1.1,3-2.6,5.5-4.4,8.2c-4.6,7.6-7.6,16.5-16.3,20.4
			c10.2-26.2,19.6-54.6,27.6-85c1.8-6.7,3.4-13.4,5-19.9c1.4-7.5,2.8-15,4.1-22.4C871.7,201.6,872.1,199.4,872.5,197.2z"/>
		<path class="st6" d="M531.9,128.7c-0.4-1.4-0.7-2.5-1.1-3.9c1.1-6,3.9-11,6.3-16.3c2.8-6.9,8.5-12.4,10.4-19.9
			c0.9-0.5,1.1-1.2,1.7-1.8c3.9-5,8-10.1,12.2-14.9c1.7-2.1,3.3-5,6.5-2.7c5.7,51,31.6,99.3,58.1,142c3.7,5.7,7.8,11.2,12,16.7
			c-6.7,1.4-10.7-3.2-14.1-8c-13.5-18.3-26.3-37.3-37.2-57.9c-5-9.4-10.4-18.6-16.7-27c-0.9-1.1-1.5-2.7-3-2.5
			c-2.2,0.5-1.7,2.5-1.7,4.1c-0.4,5.5,0.4,10.8,1.5,16c-0.8,6.2-1.6,12.4-2.4,18.6c-2.6,19.7,0.4,39.2,3.7,58.4
			c4.1,25.7,12,50.2,21.8,73.7c-5-0.9-4.8-7.1-9.4-10.5c21.7,47.3,31.1,71.7,28.5,73.1c-2.8,1.5-19.1-22.6-48.9-72.2
			c-1.3-0.5-2-1.4-2.6-3c-9.1-26.1-14.8-52.7-14.8-80.8c0.2-22-1.1-43.7,3.5-65.5c3.5-16.6,2.6-25.3,2.8-26.1c0.7-3,1.9-7.7,0.9-8.1
			c-0.8-0.3-2.6,2.3-5.3,6.3c-2.6,3.9-6.1,9.1-10.2,15.3h-0.7C533.1,130.7,532.5,129.7,531.9,128.7z"/>
		<path class="st7" d="M1320.8,469.5c14.6-1.8,29.1-0.5,43.9-0.9c9.8-0.2,10.7-1.4,6.7-11c-18.1-46.7-36.1-93.7-54.6-140.4
			c-2.4-6-2.6-10.8-0.2-16.9c17.6-44.7,34.8-89.3,52.2-134c0.9-2.1,1.3-4.4,3.5-5.5c19.6,0.2,15.7,1.6,9.8,16.7
			c-17.6,45.8-35.7,91.4-53.5,137.2c-1.7,4.6-1.3,8.7,0.4,13.1c18.5,47.4,36.8,94.6,55,142c3.9,9.8,3.3,11-6.5,11
			c-12,0-23.9-0.5-35.9,0.2C1332.6,481.2,1324.1,481.2,1320.8,469.5z"/>
		<path class="st7" d="M1120.1,469.7c13.9-2.5,28.1-0.5,42.2-0.9c10.4-0.2,10.7-0.5,8.5-11.2c-20-98.7-40.2-197.4-60.5-296.4
			c8-1.8,11.1,2.3,12.6,10.1c20.1,100.6,41.1,200.8,61.8,301.4c1.1,5.5,0,8.5-6.3,8.2c-13.9-0.5-27.6-0.7-41.5,0
			C1128.1,481.4,1121.6,480,1120.1,469.7z"/>
		<path class="st7" d="M155.6,413.2c-6.3-0.5-13.2,3.2-13.1-6.4c0.2-82.5,0.2-164.9,0.2-247.6c12.8,4.8,12.8,4.8,12.8,20.2
			C155.5,257.2,155.6,335.3,155.6,413.2z"/>
		<path class="st7" d="M341.7,280.8c-13.1,1.1-13.1,1.1-13.1-12.6c0-18.8,0.2-37.8-0.2-56.6c-0.2-6.2,1.7-7.8,7.4-7.8
			c25.9,0.2,51.6,0,77.4,0c13.3,0,13.3,0,13.3-14.4c0-9.4,0.2-18.8,0.2-28.2c12.8,0,12.8,0,12.8,13.3c0,10.5-0.2,21.1,0,31.8
			c0.2,7.3-2.6,10.1-9.8,10.1c-27-0.2-53.7,0-80.7-0.2c-6.1,0-8,1.6-7.8,8.2C342,243,341.7,261.8,341.7,280.8z"/>
		<path class="st8" d="M566.5,152.8c-1.1-5.3-1.7-10.5-1.5-16c0.2-1.6-0.2-3.9,1.7-4.1c1.5-0.2,2.2,1.4,3,2.5
			c6.3,8.5,12,17.6,16.7,27c10.7,20.6,23.5,39.4,37.2,57.9c3.5,4.6,7.4,9.4,14.1,8c13.5,17.9,28.7,33.9,44.4,49.9
			c-42.7-11.8-73.9-46.8-96.1-84.1c-0.7-1.1-0.9-2.5-1.3-3.9c-1.5-2.8-3-5.6-4.6-8.5c-6.1-7.6-8.3-17.6-13.7-25.7
			C566.3,154.8,566.5,153.9,566.5,152.8z"/>
		<path class="st8" d="M804.9,222.8c15-2.1,20-16,27.8-26.3c14.6-19.9,24.6-43.1,39.2-63c1.1-1.6,1.7-3.7,5-3.9
			c-1.1,7.6-2.4,15.1-3.5,22.4c-0.7,1.1-1.3,2.3-2,3.7c-9.4,18.1-17.2,37.1-28.7,54.1c-11.7,17.3-25.3,32-40.9,44.1
			c-18.3,14.2-31.6,20.2-36.1,22.1c-8.5,3.4-16,5.3-21.5,6.4c5.4-3.3,10.9-6.6,16.3-9.9c16.1-11.2,25.4-29.3,39.4-42.8
			C801.5,227.4,803.2,225.1,804.9,222.8z"/>
		<path class="st7" d="M92.5,469.6c2.8-1.8,5.9-0.9,8.7-0.9c42.9,0,85.9,0,128.8,0c10.7,0,10.7-0.5,11.1-11.7
			c0.2-10.5-1.3-21.1,0.9-31.6c11.5,0,12.6,1.1,12.6,13.1c0,11,0,21.8,0,32.5c0,6.6-2,9.6-8.9,9.6c-47.6-0.2-95.1-0.5-142.7,0.2
			C94,481,94.5,474.8,92.5,469.6z"/>
		<path class="st7" d="M279.5,470.3c2.8-2.7,6.1-1.6,9.4-1.6c42.2,0,84.2,0,126.2,0c10.9,0,11.3-0.7,11.5-12.4
			c0-10.3,0.2-20.6,0.2-30.9c12.4,0,12.8,0.5,12.8,13.7c0,11.2-0.2,22.2,0,33.4c0,5.7-2,8.2-7.6,8.2c-48.3-0.2-96.6-0.2-144.9,0
			C278.4,481,280,475.5,279.5,470.3z"/>
		<path class="st7" d="M341.6,413.2c-7.2-0.3-13,3.3-13-7.3c0.2-20.6,0.4-41.1,0-61.7c-0.2-6.6,2-8.2,8-8c14.1,0.5,28.2,0,42.3,0.2
			c6.7,0.2,9.1-2.5,8.9-9.6c-0.2-11.4,0.2-22.8,0.2-34.3c12.4,0.2,12.6,0.5,12.6,13.5c0,10,0,19.9,0,29.9c0,12.1,0,12.1-11.9,12.1
			c-13.4,0-27.1,0.2-40.6,0c-5,0-6.5,1.6-6.5,6.9C341.6,374.4,341.6,393.8,341.6,413.2z"/>
		<path class="st9" d="M834.2,96C827.7,80.6,816,76.5,801,79c0,0.9,0.3,1.6,0.7,2c0.9,1.2,2.1,1.7,6.6,3.1c1.3,0.4,2.6,0.8,3.8,1.1
			c-2.7,1.3-5,2.3-6.6,2.9c0,0-13.8,0.4-29.1,8.5c-0.9,0.5-2.4,0.2-3-0.5c-1.7-1.8,0.4-3,1.1-4.4c4.6-11.5,11.1-22,11.3-35
			c0.6-1.9,1-3.8,1.3-5.7c1.5-0.7,3.3-1.4,4.8-2.1c1.5,3-2.2,8.7,2.8,9.2c4.4,0.5,7.8-3.4,10.7-7.8c-4.8-3.2-9.4,0.5-13.5-1.1
			c16.5-13.1,45.2,0.5,49.2,22.7c1.7,10.3,1.3,20.4,0.2,30.5c-0.3,0.8-0.6,1.7-1,2.5c-1.5,3.7-3.4,6.7-5.2,9.2
			C834.8,108.1,834.5,102,834.2,96z"/>
		<path class="st7" d="M1202.9,470.4c8.7-3.7,17.6-1.4,26.5-1.6c24.4-0.7,17.8,3.7,26.3-19.7c7.8-21.3,14.6-43.1,22-64.4
			c0.9-3,1.3-6.2,4.4-8.9c3.9,8.5,6.3,16.9,8.7,25.7c-6.1,6.6-6.7,15.8-9.6,23.6c-5.9,15.6-10.9,31.4-15.9,47.2
			c-2,6.4-5.2,8.9-11.7,8.7c-14.4-0.5-28.7-0.2-43.1-0.2C1200.1,480.7,1199.9,480.3,1202.9,470.4z"/>
		<path class="st7" d="M987.6,470.2c10.2-3.2,20.9-0.9,31.3-1.4c15.2-0.7,15.7,3.7,18.3-15.8c1.3-9.4,3.3-18.6,4.4-27.9
			c0.7-6.2,3-8.2,8.9-8c13.5,0.5,27.2,0,40.7,0.2c11.7,0,11.7,0,13.5,13.1c-13.1-0.2-25.9-0.5-38.9-0.7c-7,0-11.3,1.1-11.7,10.8
			c-0.2,11-3,21.8-4.8,32.8c-0.9,5.5-3,8.2-9.1,8c-14.1-0.5-28.3-0.7-42.2,0C989.6,481.4,986.3,478.7,987.6,470.2z"/>
		<path class="st3" d="M776.8,537.1c2-8.2,6.1-15.8,7-24.5c2.6-28.6-9.6-49-32.2-63.2c-15.9-10.1-33.5-14.2-52-15.1
			c-3.5-0.2-7-0.2-10.7-0.5c7.4-8.2,17.6-9.2,27.2-9.8c17.6-1.4,33.5,4.1,48.3,14c2.6,1.6,4.8,3.7,8.3,2.7c2.4,1.4,4.8,2.5,7.2,3.9
			c0.9,1.4,1.5,2.7,2.2,4.1c-1.7,4.6,2.8,7.3,3,11.2c-1.3,0.7-1.1,1.1,0,1.8l0,0c0.2,5.7,2,10.8,4.8,15.6c5,22.2,3.5,43.1-12.6,60.5
			C777.5,537.5,776.8,537.1,776.8,537.1z"/>
		<path class="st6" d="M663.3,439.3c-11.1,11.3-11,15.4-22.2,1.4c-19.7-22.8-25.1-56.8-8.5-82.9c1.7-3.2,4.3-2.7,5.4,0.2
			c2.6,7.8,9.4,11.7,13.9,17.6c-0.4,1.4-0.4,2.7-1.1,4.1c-10,22.4-7.2,38.2,10,55.2C662.2,436.3,663.1,437.4,663.3,439.3z"/>
		<path class="st9" d="M684.7,341.2c-0.2,5.5-0.2,11.2-0.4,16.7c-0.2,2.5,1.1,5.7-2,7.3c-8.4-7.2-13.6-16.8-16.3-27.5
			c0-1.4-0.7-2.5-2.2-2.7c-0.2,0-0.4,1.8-0.7,2.7c-0.2,6.4-1.1,12.6,0.4,19c0.2,0.7,0.4,1.4,0.9,2.1c-1.3,3.2,4.1,7.3,0.4,9.2
			c-4.1,1.8-7.4-2.7-9.8-6c-7.4-9.4-8.7-20.4-7.8-32.1c1.5-1.1,3-2.7,4.8-3c9.8-1.4,19.6-3.4,29.4-5.3c8.8-1.7,22.3,2.1,24.4,17.7
			c-0.4,3.7-1.1,9.5-1.5,13.2l-0.7,2.1c-1.6,3-2.3,6.1-4.6,8.7c-1.1,0.5-2.2,2.3-3.5,0c0.2-4.2,0.5-8.5-1.1-12.6
			c-2.6-4.8-0.9-11-4.6-15.3c-0.4-2.3-0.9-4.8-3.7-5.5C683.8,334.1,683.6,337.8,684.7,341.2z"/>
		<path class="st9" d="M789.8,331.2c0.2,3.4,0.7,6.9,0.9,10.3c0,0.5-0.2,1.1-0.2,1.6c-3.5,8.2-6.5,16.7-13.3,22.9
			c-2.2,2.1-4.4,4.1-7,2.3c-2.2-1.6,0.2-4.4,0.9-6c3.3-7.8,3-15.6,2.4-25c-5.2,4.6-6.7,10.3-9.8,14.9c-3.3,4.8-4.4,11.7-11.1,13.5
			c0-11-0.2-22-0.2-33.2c0-1.4,0.7-3.2-1.5-3.2c-1.7,0-1.7,1.8-2.2,3.2c-0.4,0.7-0.7,1.6-1.1,2.3c-0.4,0.5-0.9,1.1-1.3,1.8
			c-4.7,8.2-5.9,16.8-5.4,26.2c-1.6,0.7-1.7,0.8-3.3,1.5c-8-7.6-6.1-17.2-6.3-26.3c0.9-2.3,2-4.6,3-6.9c2.6-5.5,21.3-13.1,25.7-9.2
			c5.4,4.8,11.3,4.6,17.4,4.1C782.2,325.7,786.1,327.7,789.8,331.2z"/>
		<path class="st8" d="M834.9,331.2c8.7-3.9,11.7-12.8,16.3-20.4c1.5-2.5,3.3-5.3,4.4-8.2c2.4-6.4,4.4-11.5,12-5
			c3.3,2.7,5.4-1.6,7.6-3.9c3.3-3.4,2.6-10.3,9.1-10.5c-4.8,15.1-9.6,30-15.9,44.4c-8.3,19.6-10.8,24.6-11.2,24.5
			c-0.6-0.2,4.2-13.2,9.7-35.7c0.4-1.8,0.8-3.4,1.1-4.6c0.7-1.1,0.4-2.3-0.9-2.3c-1.5,0-1.7,1.4-1.7,2.7c-1.3,2.7-2.6,5.5-3.9,8.5
			c-9.1,14.7-18.3,29.1-27.4,43.7c-2.2,3.7-4.4,3-5.9-0.2c-2.2-4.4-4.8-8-2-14C829,343.8,831.6,337.4,834.9,331.2z"/>
		<path class="st6" d="M780.1,444.8c-2.4-1.4-4.8-2.5-7.2-3.9c-6.1-5.5-5-8.7,1.5-13.7c10.4-8,18.9-27,12.4-41.5
			c-5.2-11.5,1.3-15.6,8.3-20.6c3.3,0.7,3.9,3.7,4.8,6.2c10,25.4,3.9,52.9-15.9,71.7C782.7,443.4,781.4,444.1,780.1,444.8z"/>
		<path class="st8" d="M559.7,294.1c1.5-1.1,5.6,2.1,8,4.1c19,15.6,29.5,36.8,30.8,38.8c8.3,13.2,12,27.8,10.4,28.8
			c-0.9,0.5-3.7-3-6.1-6.2c-17.9-23.6-29.8-46.3-31.1-45.8c-0.7,0.3,1.4,8.1,12.2,37.6c-3.5-5-11-16.2-15.6-27.8
			c-0.7-1.9,0-0.1-5-14.7C559.8,298.6,558.5,295,559.7,294.1z"/>
		<path class="st10" d="M946.5,181.6c-7.2-6.4-0.4-12.6,0.2-19c1.7,0.5,2.2,3.4,4.8,2.5c0.7-3.2-0.9-6-1.3-9.2c2.4,0,3,1.8,3.9,3.7
			c7.8,15.8,13.9,32.1,18.9,49.2c3.3,11.5,4.8,23.4,10.9,33.7c1.4,9.6,2.8,18.8,3.9,28.4c0,3.4,0.2,6.9,0.2,10.3
			c0,8.6-0.3,12.2-0.6,12.2c-0.3,0-0.8-3.4-1.6-12c-5.7-17.6-8-36.4-14.1-54.1c-5.7-15.8-12.4-31.1-21.1-45.3
			C948.9,179.6,947.8,181.6,946.5,181.6z"/>
		<path class="st3" d="M784,442.9c19.8-18.8,25.9-46.3,15.9-71.7c-1.1-2.5-1.5-5.7-4.8-6.2c2-3.7,2.2-10.3,6.5-10.5
			c4.8-0.2,6.5,6,8.5,10.3c9.8,20.6,8.5,41.2-1.5,61.2c-2.6,5.3-8.3,8-10.4,13.7c-4.6-0.9-7.2,2.5-10.2,4.8
			C786.2,445.7,783.6,448.7,784,442.9z"/>
		<path class="st10" d="M493.2,161c0.2,3.4-0.7,6.6,2.8,9.6c3.9,3.4,1.7,6.2-2.4,7.6c-0.4-0.9-1.1-2.7-1.1-2.7
			c-2.6,0.9-3.7,3.2-4.4,6C478,199,467.7,221.3,460.5,248c-2.2,8.4-3.9,16.4-5.2,24c-0.3,0.7-0.7,1.6-0.9,2.7
			c-0.2,0.9-0.4,1.9-0.4,2.8c-0.9,7-1.5,10.5-1.9,10.5c-0.5,0-0.7-5.3-0.5-15.8c0-6.9,0.7-12.6,1.4-16.7c1.5-8.8,3.8-15.8,6.6-24.3
			c1.5-4.6,2.8-6.8,4.1-11.5c5.7-20.2,11.7-40.1,21.3-58.9c0.9-1.6,0.4-5,3.9-3.9c-1,3.1-1.2,5.7-1.2,7.5c0,2.4,0.4,2.6,0.5,2.6
			C489.3,167.5,491.5,164,493.2,161z"/>
		<path class="st11" d="M593,310.3c-18.3-35-33.7-99.5-29.1-138.8c5.4,6.6,2.8,15.1,3.9,22.4c4.6,32.1,12.4,63,21.8,93.9
			c2.6,8.2,7,16.3,7.4,25.4C595.6,312.4,594.3,311.2,593,310.3z"/>
		<path class="st11" d="M892.3,89.1c-4.8-5.7-9.6-11.5-14.4-17.2c-1.5-1.8-2.8-4.6-5.9-3c0.2-3-2-6.9,1.3-8.5c3.5-1.8,5,2.3,7.2,4.4
			c22.2,22,41.5,46.3,55.7,74.9c2.2,4.4,5,8.7,5.7,14c-4.4,0.9-6.1-2.5-7.8-5.7c-7.6-13.3-15.7-26.3-24.8-38.5
			C905.6,101,900.2,93.9,892.3,89.1z"/>
		<path class="st11" d="M567.8,69.4c-3.5-2.3-5,0.7-6.5,2.7c-4.1,4.8-8,9.8-12.2,14.9c-0.6,0.7-0.9,1.3-1.7,1.8
			c-8.7,6.2-14.6,14.9-19.8,24.3c-8,10.8-14.8,22.2-21.5,33.9c-1.7,3-3.3,6.9-7.8,5.7c4.8-16.3,14.1-29.8,23.5-43.3
			c11.1-15.8,23.1-30.7,36.3-44.7c2.2-2.3,4.4-6.2,8-4.4C570.2,62.1,567.8,66.2,567.8,69.4z"/>
		<path class="st7" d="M1286,227c0.7,5.5-1.1,10.1-4.8,16.7c-9.1-28.6-17.8-55.4-26.5-82.2c5.7-1.1,8.7,1.1,10.7,7.3
			c5,16.5,10.7,33,16.3,49.5C1282.6,221.2,1283.2,224.7,1286,227z"/>
		<path class="st11" d="M791.8,49.5c-1.5,0.7-3.3,1.4-4.8,2.1c-0.2-6.6,3-10.3,8.9-12.4c14.1-4.6,27,0.2,38.1,8.2
			c12.6,9.2,14.8,23.6,12,38.7c-1.1,5.7,0.2,12.4-5.2,16.7c1.3-10.1,1.7-20.2-0.2-30.5C836.9,49.9,808.4,36.4,791.8,49.5z"/>
		<path class="st11" d="M983.9,242.8c-6.1-10.3-7.6-22.4-10.9-33.7c-5-16.9-11.1-33.4-18.9-49.2c-0.9-1.8-1.5-3.7-3.9-3.7
			c-2.6-6.9-5.4-14-5-22C966.3,167,980.4,202.7,983.9,242.8z"/>
		<path class="st11" d="M663.3,439.3c-0.2-1.8-1.1-3-2.4-4.4c-17-16.9-19.8-33-10-55.2c0.7-1.1,0.7-2.7,1.1-4.1
			c4.6,0,4.4,2.3,3.3,6.2c-4.8,16.7-2.6,31.8,10.4,44.2C673.3,433.3,673.1,434.2,663.3,439.3z"/>
		<path class="st11" d="M488.8,157.6c-3.5-0.9-3,2.3-3.9,3.9c-10,18.3-14.9,39-21.3,58.9c-4.1,12.7-7.3,22.9-9.3,28.9
			c1.2-6.5,2.7-15.6,4.2-26.8c0.4-3.1,0.6-5,0.7-5.8c3.7-29.5,28.2-73.2,31.8-79.5c1.5-2.7,4-7,7.3-12.4c-1.4,6.9-3.3,14.3-5.7,22.1
			C491.3,150.6,490.1,154.2,488.8,157.6z"/>
		<path class="st5" d="M754.2,73.7c-7.4,6.6-16.1,5.3-24.8,4.6c-4.8-0.5-3.5-5.5-5-7.3c-6.3-6.2-13.7-11-20.7-16.3
			c-1.3-0.9-3-1.4-4.1-2.5c-1.3-1.1-2.2-2.7-0.7-4.4c1.1-1.4,2.4-1.4,3.5-0.5c2.8,2.3,6.3,3.2,9.8,3.9c6.3,2.1,10.7,5.7,14.4,12.1
			C732.4,74,743.3,74.2,754.2,73.7z"/>
		<path class="st11" d="M705.3,338c-2.6-14.2-15.7-17.6-24.1-16c-9.6,1.8-19.4,3.9-29.4,5.3c-1.7,0.2-3.3,2.1-4.8,3
			c0.9-7.3,5-11,11.7-11.2c5.9,0,11.5-0.7,17.4-3c8.5-3.4,17,0.2,24.8,3.4C706.8,322,708.1,330.5,705.3,338z"/>
		<path class="st11" d="M790.1,331.2c-3.5-3.4-7.4-5.5-12.4-5c-6.1,0.5-12,0.5-17.4-4.1c-4.4-3.7-22.8,3.7-25.7,9.2
			c-1.1,2.3-2,4.6-3,6.9c-3.5-8.7,0-18.1,8.3-19.7c9.1-2.1,18.3-7.3,27.6,0.2c2.4,2.1,7.4,0.5,11.1,0.7
			C785.1,319.5,790.5,325.2,790.1,331.2z"/>
		<path class="st10" d="M892.3,89.1c7.8,4.8,13.3,11.9,17,20.4c-5.2,0.9-2.2,4.1-1.3,6.2c2.6,4.8,3.3,9.2,0.7,14.2
			c-2.4,4.4-1.1,9.2,0.2,14c0.9,3.2,3.7,6.6,0.7,10.3c-2.2-7.3-4.4-14.4-6.3-21.8c6.5-4.8,5-10.8,2.2-16.7
			C901.2,106.7,896.7,98,892.3,89.1z"/>
		<path class="st7" d="M717.7,361.6c-5.2,0-8.7-0.9-6.1-7.3c0.7-1.8,0.2-3.9,0.4-6c0.7-3.9-2-9.6,4.6-9.8c6.7-0.2,4.6,5.5,5,9.4
			c0.2,2.5,0,5.3,0.9,7.6C724.4,361.2,721.6,361.9,717.7,361.6z"/>
		<path class="st5" d="M733.1,44.2c-0.9-1.1-1.7-2.1-3.7-4.6c6.1,1.1,11.1,1.6,15.7,3.2c11.1,4.4,20.9,1.4,30.5-4.6
			c1.5-0.9,2.6-3.2,4.6-0.7c-9.4,16.5-23.5,11.9-37,9.6C739.6,46.3,736.4,45.1,733.1,44.2z"/>
		<path class="st10" d="M30.6,596.7L30.6,596.7L30.6,596.7"/>
		<path class="st10" d="M574.7,472c4.6,1.1,6.3,5.3,8.3,9.4c0.9,2.1,1.7,2.7,3.3,0.9c3.7,6.9,7.4,13.5,10.9,20.4
			c-0.4,0.5-0.9,1.1-1.3,1.6C586.9,494.9,579.5,484.4,574.7,472z"/>
		<path class="st11" d="M744.2,66.6c-3.9,0-6.3-1.4-8.3-3.2c-1.7-1.4-3.5-3.2-2.2-5.7c1.3-2.1,3.3-0.9,5,0c2.6,1.4,5.2,2.7,8.3,0.7
			c1.3-0.9,3.5-3,4.8-0.7C754.1,61.8,746.4,65.1,744.2,66.6z"/>
		<path class="st10" d="M518,427.1c0.1-0.1,0.3-0.2,0.4-0.2c1.2-0.2,2.6,1.6,3.1,2.3c2.6,3.4,21.3,37,23.2,40.5
			c-7.3-8.4-15-18.9-21.7-31.8C521.2,434.2,519.5,430.6,518,427.1z"/>
		<path class="st12" d="M749,332.3c0.4-1.4,0.4-3.2,2.2-3.2c2,0,1.3,1.8,1.5,3.2c0.2,11,0.2,22,0.2,33.2c-6.7-3.9-2.8-10.1-2.6-15.3
			C750.5,344,752.5,338,749,332.3z"/>
		<path class="st7" d="M784,442.9c-0.4,5.7,2.2,2.7,3.9,1.4c3.3-2.3,5.9-5.7,10.2-4.8c-4.8,3.9-7,13.3-15.9,9.2
			c-0.9-1.4-1.5-2.7-2.2-4.1C781.4,444.1,782.7,443.4,784,442.9z"/>
		<path class="st5" d="M790.6,477.4c-3.1-5-5-10.3-5.3-16.4c4.5,4.1,6.9,9.5,8,15.3C791.8,477,792.1,476.9,790.6,477.4z"/>
		<path class="st11" d="M950.2,156c0.4,3,2,6,1.3,9.2c-2.6,0.9-3-1.8-4.8-2.5c-0.9-2.3-2-4.6-2.8-6.9C946,156,948.2,156,950.2,156z"
			/>
		<path class="st12" d="M685,341.2c-1.1-3.7-0.9-7.1,1.1-11c2.8,0.7,3.3,3,3.7,5.5C686.1,335.8,686.1,339,685,341.2z"/>
		<path class="st12" d="M476.4,274.4c0,5.7-0.2,11.5-0.2,17.2C474.7,285.8,474.5,280.1,476.4,274.4z"/>
		<path class="st10" d="M491.9,181.8c0.7-0.7,1.1-1.1,1.7-1.8c-0.9,3.4,2.4,8.2-3,10.5c0-1.1,0-2.1,0-3.2c0.2-0.7,0.7-1.4,0.9-2.1
			C491.7,183.9,491.7,182.8,491.9,181.8z"/>
		<path class="st11" d="M760.7,154.1c-0.2,1.1-0.2,3.2-2,2.5c-1.7-0.7-1.1-2.7-1.3-4.1C758.5,153,759.6,153.7,760.7,154.1z"/>
		<path class="st11" d="M703.3,355c0.7-1.8,1.3-3.7,2-5.5C705.3,351.6,705.9,353.8,703.3,355z"/>
		<path class="st12" d="M476.9,260.6c0,1.8-0.2,3.4-0.2,5.3C474.9,264.1,474.9,262.2,476.9,260.6z"/>
		<path class="st11" d="M663.1,337.7c0.2-0.9,0.4-2.7,0.7-2.7c1.5,0,2.2,1.1,2.2,2.7C665,337.7,664.1,337.7,663.1,337.7z"/>
		<path class="st12" d="M477.1,311.9c1.1,1.4,1.3,2.5-0.2,3.7C477.1,314.5,477.1,313.3,477.1,311.9z"/>
		<path class="st12" d="M680.9,364.2c0.4,0.5,1.1,0.9,1.5,1.4C681.8,365.1,681.3,364.6,680.9,364.2z"/>
		<path class="st12" d="M512.5,313.8c0.2,0.7,0.2,1.1,0.4,1.8C511.9,315.1,511.4,314.7,512.5,313.8z"/>
		<path class="st12" d="M479.9,240c-0.2,0.9-0.4,1.6-0.7,2.5C479.5,241.6,479.7,240.9,479.9,240z"/>
		<path class="st12" d="M491,185c-0.2,0.7-0.7,1.4-0.9,2.1C490.3,186.4,490.8,185.7,491,185z"/>
		<path class="st3" d="M155.6,413.2c0-2.3,0.5-0.9,1.5,0c0,0-0.9,0.2-0.9,0.2L155.6,413.2z"/>
		<path class="st12" d="M958,228.3c-0.4-0.7-0.7-1.4-1.1-2.1C957.4,227,957.8,227.6,958,228.3z"/>
		<path class="st12" d="M746.6,336.2c0.4-0.5,0.9-1.1,1.3-1.8C747.5,335.1,747,335.8,746.6,336.2z"/>
		<path class="st12" d="M480.6,335.5c0.2,0.9,0.4,1.6,0.9,2.3C481.2,337.1,481,336.4,480.6,335.5z"/>
		<path class="st12" d="M957.1,341.5c0.4-0.7,0.7-1.1,1.1-1.8C957.8,340.1,957.4,340.8,957.1,341.5z"/>
		<path class="st12" d="M482.5,345.8c0.2,0.9,0.7,1.8,0.9,2.5C483.2,347.4,482.7,346.5,482.5,345.8z"/>
		<path class="st12" d="M511.7,308.3c0.2,0.7,0.4,1.6,0.7,2.3C512.1,309.6,511.9,309,511.7,308.3z"/>
		<path class="st11" d="M987.8,270.9c0-0.5,0-1.1-0.2-1.8c0.2,0.5,0.4,0.7,0.7,1.1C988.2,270.5,988,270.7,987.8,270.9z"/>
		<path class="st12" d="M905.8,288.1c-0.4,0.7-1.1,1.1-1.5,1.8C904.9,289.5,905.4,288.8,905.8,288.1z"/>
		<path class="st5" d="M785.6,461.7c-1.3-0.5-1.3-1.1,0-1.8C785.6,460.6,785.6,461,785.6,461.7z"/>
		<path class="st12" d="M489.5,191.9c-0.2,0.7-0.7,1.4-0.9,2.1C488.8,193.3,489,192.6,489.5,191.9z"/>
		<path class="st11" d="M664.4,359.1c-0.2-0.7-0.4-1.4-0.9-2.1C663.7,357.7,664.1,358.4,664.4,359.1z"/>
		<path class="st11" d="M786.2,54.7c-0.2,0.7-0.4,1.6-0.7,2.3C785.7,56.3,786,55.4,786.2,54.7z"/>
		<path class="st12" d="M454.7,274.6c0.2-0.7,0.7-1.4,0.9-2.3C455.1,273,454.9,273.7,454.7,274.6z"/>
		<path class="st12" d="M476.6,295c0,0.7,0,1.1,0,1.8c-0.2-0.5-0.4-0.9-0.4-1.4C476.1,295.4,476.4,295.2,476.6,295z"/>
		<path class="st12" d="M698.7,363.7c0.4-0.7,0.9-1.4,1.3-2.1C699.8,362.3,699.4,363,698.7,363.7z"/>
		<path class="st11" d="M790.5,343.1c0-0.5,0.2-1.1,0.2-1.6C790.7,342.2,791.3,342.9,790.5,343.1z"/>
		<path class="st7" d="M1065.9,367.1c-14.8,0.9-15,0.7-12.8-14c5.4-35.3,10.9-70.3,16.5-105.4c0.4-2.5,1.3-4.8,2.8-7.3
			c4.1,12.8,5.4,26.1,7.6,39.4C1075,309,1070.5,338,1065.9,367.1z"/>
		<path class="st10" d="M527.8,113.1c5.2-9.4,11.1-18.1,19.8-24.3c-2,7.6-7.4,12.8-10.4,19.9c-2.2,5.3-5.2,10.5-6.3,16.3
			c-2.8-2.1-1.5-4.8-0.7-7.3C531,115,530.4,113.4,527.8,113.1z"/>
		<path class="st13" d="M718.5,540.7c-22.4,0-39.2-16.7-39.2-38.7c0-19.5,14.8-36.4,32.6-35c24.6,2.1,40.9,16.9,41.8,40.5
			C754.6,524.5,737.4,543,718.5,540.7z"/>
		<path class="st3" d="M775.5,540.7c-0.2-1.6,0-2.7,1.3-3.7l0.7,0.5C777.3,538.9,776.8,540,775.5,540.7z"/>
		<path class="st3" d="M775.6,540.5c-0.2,0.5-0.4,0.9-0.7,1.1C774,540.5,774.7,540.5,775.6,540.5
			C775.6,540.7,775.6,540.5,775.6,540.5z"/>
		<path class="st3" d="M658.1,174.7c0,0.2-0.2,0.5-0.4,0.7C657.8,175.2,657.8,175,658.1,174.7z"/>
		<path class="st10" d="M548,88.4c0.4-0.5,0.7-0.9,1.1-1.4C548.9,87.5,548.4,87.9,548,88.4z"/>
		<path class="st11" d="M791.8,49.5c4.1,1.6,8.9-2.1,13.5,1.1c-2.6,4.4-6.3,8-10.7,7.8C789.7,57.9,793.4,52.4,791.8,49.5z"/>
		<path class="st2" d="M625.1,473"/>
		<path class="st8" d="M613.2,304"/>
		<path class="st8" d="M609.2,306.1"/>
		<path class="st6" d="M533.4,132.1c-0.5-1.1-1-2.3-1.5-3.4"/>
		<path class="st2" d="M918.2,453.2"/>
		<path class="st2" d="M861.8,489.1"/>
		<path class="st11" d="M736.6,560.8"/>
		<path class="st11" d="M771.1,54.2"/>
	</g>
</g>
</svg>
